<?xml version="1.0" encoding="UTF-8"?>
<svg id="Layer_2" data-name="Layer 2" xmlns="http://www.w3.org/2000/svg" viewBox="0 0 99.19 19.56">
  <defs>
    <style>
      .cls-1 {
        fill: #3e2364;
        stroke-width: 0px;
      }
    </style>
  </defs>
  <g id="Layer_1-2" data-name="Layer 1">
    <g>
      <g>
        <path class="cls-1" d="M4.65,19.09L0,4.56h5.05l3.76,12.27h-2.53l3.99-12.27h4.51l3.72,12.27h-2.43l3.92-12.27h4.65l-4.65,14.53h-5.25l-3.03-10.05h1.41l-3.2,10.05h-5.25Z"/>
        <path class="cls-1" d="M30.27,16.25v3.07h4.69v-3.07h-4.69Z"/>
        <path class="cls-1" d="M45.98,19.56c-1.22,0-2.39-.14-3.53-.42-1.14-.28-2.07-.64-2.8-1.08l1.58-3.57c.69.4,1.46.72,2.31.97.85.24,1.68.36,2.48.36.47,0,.84-.03,1.11-.09.27-.06.47-.15.59-.27s.19-.26.19-.43c0-.26-.15-.47-.44-.62-.29-.15-.67-.28-1.15-.38-.48-.1-1-.21-1.57-.33-.57-.12-1.14-.27-1.71-.47-.57-.19-1.1-.45-1.58-.77-.48-.32-.86-.74-1.15-1.26-.29-.52-.44-1.17-.44-1.94,0-.9.25-1.72.76-2.46.51-.74,1.26-1.33,2.26-1.78,1-.44,2.25-.66,3.75-.66.98,0,1.95.1,2.91.31s1.81.53,2.57.96l-1.47,3.55c-.72-.36-1.42-.63-2.09-.81-.67-.18-1.33-.27-1.96-.27-.47,0-.84.04-1.12.12s-.47.19-.59.33c-.12.14-.18.29-.18.46,0,.25.15.45.44.59.29.15.67.27,1.15.36.48.1,1,.2,1.58.31.57.11,1.15.26,1.71.46.57.19,1.09.45,1.57.77.48.32.86.73,1.15,1.25.29.51.44,1.15.44,1.91,0,.89-.25,1.7-.76,2.44s-1.26,1.34-2.25,1.79c-1,.45-2.25.67-3.76.67Z"/>
        <path class="cls-1" d="M57.36,19.23v-10.73h-4.26v-3.8h13.41v3.8h-4.26v10.73h-4.9Z"/>
        <path class="cls-1" d="M72.59,15.53h7.27v3.7h-12.08V4.69h11.81v3.7h-7v7.14ZM72.26,10.09h6.48v3.53h-6.48v-3.53Z"/>
        <path class="cls-1" d="M81.75,19.23V4.69h4.03l5.81,9.49h-2.12l5.65-9.49h4.03l.04,14.53h-4.46l-.04-7.81h.71l-3.86,6.5h-2.16l-4.03-6.5h.87v7.81h-4.46Z"/>
      </g>
      <path class="cls-1" d="M38.8,10.76s-.03-.1-.05-.15c-.03-.08-.07-.16-.11-.25v-.07s.03-.08.04-.12c.08-.22,0-.38-.17-.5-.04-.02-.07-.04-.09-.07-.04-.05-.04-.08,0-.12.01-.02.04-.04.05-.06.05-.05.1-.1.12-.17.07-.19-.01-.38-.16-.49-.06-.04-.13-.07-.2-.1-.2-.07-.39-.16-.57-.28-.11-.08-.2-.17-.28-.28-.03-.05-.06-.12-.07-.18-.02-.1-.02-.2-.03-.3-.01-.09-.01-.18-.01-.27-.01-.1-.02-.2-.04-.29,0-.09-.02-.19-.06-.28-.02-.07-.05-.14-.07-.21-.01-.03-.01-.06-.02-.1.08-.05.14-.12.19-.21.05-.1.09-.22.09-.34,0-.04,0-.06.06-.07.04-.01.09-.01.13-.02.1-.02.14-.06.15-.16,0-.03.01-.06.01-.1-.02-.07-.01-.15-.01-.23.01-.07-.01-.14-.01-.23.08-.06.06-.15.03-.23.05-.03.09-.05.12-.08.04-.04.04-.1.04-.15v-.14s.01.01.03.02c.07.04.14.01.14-.07s-.02-.15-.03-.22c-.01-.04-.04-.08-.09-.08-.01-.01-.02-.02-.04-.02-.01-.01-.01-.02-.03-.02-.02-.01-.04-.01-.05-.01-.06.04-.14-.01-.21.03-.03.03-.07.03-.11.03-.05,0-.08-.01-.13-.01-.04-.04-.09-.09-.13-.13t-.01-.02c-.02-.08-.07-.15-.08-.23,0-.06-.03-.12-.04-.19.02.01.04.01.05.03.08.04.15.06.24,0,.08-.06.1-.15.1-.24,0-.03-.01-.06-.01-.09.1-.11.12-.23.07-.37-.02-.05-.04-.1-.06-.15-.01-.02-.01-.04,0-.07.03-.05.02-.1,0-.15-.03-.12-.11-.21-.21-.27-.02-.01-.05-.03-.07-.03-.06-.02-.11.02-.13.07,0,.05-.01.09-.05.13-.01.01-.01.03-.02.05-.05-.04-.09-.07-.13-.09-.04-.03-.07-.04-.12-.02h-.02c-.07-.03-.16-.04-.21-.1-.09-.1-.18-.2-.23-.32h.05s.08-.01.11-.05c.02-.03.02-.07-.01-.1-.03-.05-.06-.08-.1-.12-.02-.01-.05-.02-.07-.04,0-.05,0-.1.02-.15.04-.04.02-.09,0-.13-.02-.02-.04-.05-.07-.07-.03-.03-.08-.05-.09-.11-.01-.02-.03-.04-.05-.05-.08-.04-.17-.08-.26-.12-.01-.01-.03-.01-.05-.01-.03,0-.06.01-.07.03-.03.04-.02.07,0,.09.02.03.05.07.09.1-.03.01-.04.01-.06.02-.08.02-.1.08-.07.16,0,.02.04.04,0,.07-.07,0-.15-.04-.24.03,0-.07,0-.12,0-.17-.01-.11-.04-.2-.08-.3-.03-.07-.08-.12-.13-.17-.02-.01-.03-.02-.04-.04.03-.01.05-.01.07-.01.05-.01.09-.04.09-.07.01-.05-.01-.08-.05-.11-.02,0-.03-.01-.04-.01-.03,0-.04-.02-.05-.06s-.04-.07-.09-.08c-.03-.01-.07-.02-.1-.02-.07-.01-.14,0-.16.09-.06.01-.13-.01-.18.03-.14-.09-.19-.09-.24.05-.03-.01-.06-.01-.1-.02,0-.06,0-.11-.05-.15-.01,0-.02-.02-.02-.03,0-.06-.04-.09-.09-.11-.05-.01-.08-.02-.13-.03-.02-.02-.04-.03-.06-.04v-.02c0-.08-.02-.11-.1-.13-.05,0-.12-.02-.18-.04-.08-.04-.12-.02-.15.07-.12.02-.19.1-.09.23,0,.03-.02.07-.02.1,0,.06-.02.08-.08.08-.03.01-.06.01-.1,0-.03-.01-.07,0-.09.02-.03.03-.06.03-.09.02-.04-.01-.08-.02-.12-.03-.09-.02-.17-.05-.25-.1.03-.02.06-.02.09-.01.04.01.09.01.1.07,0,.01.02.01.03.01.05-.07.04-.11-.07-.18h0s.07-.06.05-.11c-.02-.06-.06-.07-.11-.06h-.04s-.09,0-.13-.05c-.09-.09-.21-.13-.34-.14-.06,0-.12.01-.16.05-.06.04-.08.11-.04.18.01.02.02.05.03.08.02,0,.04.02.05.02.01.05.02.09.02.13-.03.01-.07.01-.1.03-.08,0-.14.05-.16.12-.01.05-.04.06-.08.07-.06.03-.12.04-.17.08-.06.04-.14.06-.21.08-.03.01-.04.01-.08,0,.01,0,.02-.02.03-.02.06-.04.11-.06.18-.09.02-.01.04-.01.06-.02.05-.03.07-.07.06-.12-.02-.03-.06-.06-.11-.05h-.07l.11-.11s.04-.08.01-.11c-.02-.03-.06-.04-.1-.02-.05.02-.08.04-.12.07-.07.03-.12.07-.18.1-.02.01-.04.02-.05.02-.07-.03-.13,0-.2,0-.02,0-.03.01-.04.01-.02-.03-.01-.06.02-.07.05-.03.09-.08.12-.13.02-.05.04-.08.01-.13-.02-.04-.06-.04-.11-.04h-.37s-.08.01-.13.02c-.09.03-.11.09-.07.18v.03h-.06s-.1.04-.11.08c-.01.06.01.11.06.14.05.03.12.06.18.08.01,0,.02.01.05.01-.09.03-.17.02-.25.02-.02,0-.04-.02-.06-.02-.06-.01-.12.02-.13.07-.01.05,0,.1.07.12.04.02.07.04.11.05h0c-.12.04-.25.07-.37.1t-.01-.02s.03-.04.05-.06c.08-.08.07-.14-.03-.19,0-.02.01-.04.01-.05,0-.07-.05-.13-.12-.13-.04,0-.07.01-.09.01-.08.03-.15.07-.23.1-.07.04-.13.08-.2.12-.08.04-.18.06-.27.07q-.06,0-.1-.05s.04-.03.05-.04c.04-.03.07-.05.1-.08.04-.04.05-.08.03-.13-.02-.05-.06-.08-.11-.08-.04,0-.08,0-.11.02-.05.02-.08.05-.12.07-.07-.07-.11-.09-.19-.03-.15.09-.26.21-.36.35,0,.02-.02.03-.02.05h-.01c-.09-.08-.22-.06-.27.06-.06.14-.12.3-.14.45-.01.07-.04.1-.11.12t-.01-.01c0-.12-.07-.16-.17-.11-.02.01-.04.02-.05.03-.03,0-.06,0-.08,0-.07-.04-.12-.03-.17.04-.07.08-.1.17-.05.27,0,.02,0,.04-.01.06-.03.09.03.15.13.13.01-.01.02-.01.03-.01.04,0,.08.01.13.02.03.05.07.09.15.07.01,0,.03.02.06.04-.16.09-.3.19-.37.38-.04-.15-.07-.16-.17-.12t-.01-.04s-.11-.05-.15.01c-.02.03-.03.05-.05.08h-.02c-.08-.05-.13-.05-.17.03-.05.11-.08.21-.09.32,0,.08.04.12.12.13.07,0,.1.02.1.09-.01.05-.01.11-.04.16-.03.05-.03.12.03.17-.03.05-.06.08-.12.11.01-.03.01-.04.01-.06.01-.04-.01-.07-.05-.09-.03-.02-.07-.01-.1.02-.03.04-.06.08-.09.12,0,.01-.01.02-.02.03-.01-.04-.03-.08-.05-.13v-.14c.01-.05,0-.08-.05-.1h-.01c-.08-.05-.13-.04-.16.05-.02.03-.02.07-.03.1-.01.06-.03.12-.1.14-.05,0-.07.06-.09.11-.01.03-.03.06-.06.07-.02,0-.02.02-.04.02-.02.02-.05.05-.07.05-.07,0-.1.03-.15.07-.02.03-.04.05-.07.08-.09-.01-.1,0-.12.07-.02.04-.02.08-.02.11,0,.08.03.11.1.1t.04-.01c-.01.09,0,.17.1.19,0,.03.01.07.01.11-.1.01-.12.1-.17.17-.01-.04-.03-.06-.04-.09-.04-.09-.13-.09-.18,0-.02.02-.03.05-.04.07,0,.03,0,.06,0,.09-.02.01-.05.01-.07.02-.02.01-.03.03-.04.04-.02.02-.04.05-.05.07-.04.09-.08.18-.1.27-.03.08.01.13.08.15.04,0,.07,0,.09-.04.02-.03.05-.06.08-.11.01.02.01.03.01.05.04.05.09.07.15.04.03,0,.06-.03.09-.04.01.05-.02.07-.05.08-.07.02-.13.05-.2.07-.06.02-.11.05-.17.08-.1.05-.12.1-.06.2t.01.02s-.03.05-.05.07c-.04.09-.09.15-.17.2-.04.02-.07.04-.09.07-.06.06-.07.13-.01.19.04.04.08.06.13.09.02.02.04.03.06.04-.03.09-.07.16-.09.24-.04.11-.07.23-.06.35,0,.07-.01.14-.05.21-.03.01-.05,0-.06-.04-.01-.02-.02-.05-.03-.07-.01-.03-.01-.05-.02-.08-.01-.04-.03-.07-.08-.08-.05-.01-.07.03-.1.06-.1.11-.09.26-.11.39-.02.1-.02.2-.02.31,0,.03-.01.06-.03.08-.05.1-.07.2.01.3-.02.02-.04.04-.06.06-.06.04-.07.09-.04.15.02.04.04.08.07.11.05.07.14.06.19,0,.02-.02.03-.05.04-.07.02,0,.03.02.04.02.04.03.09.03.13,0,0-.01.02-.03.02-.03.02-.01.04-.02.06-.03.01.03.01.07.02.1.01.03.01.06.02.09-.17.18-.18.23-.08.38-.02,0-.04.03-.06.03-.08.02-.1.08-.12.15-.01.07-.03.12-.04.2-.02-.03-.03-.05-.04-.06-.02-.02-.03-.04-.05-.06-.06-.05-.14-.04-.18.04-.02.02-.02.05-.04.09t-.03-.01s-.1.01-.11.06c-.01.04-.02.08-.02.12.01.09.04.18.07.26.02.04.03.08.04.12,0,0,.02,0,.04-.01,0,.04,0,.07-.01.1-.01.07.04.15.1.17.05.01.08,0,.12-.03.01-.02.02-.04.04-.07.01.04.01.07.01.09.02.05.04.08.07.07.03,0,.06-.02.06-.07.01-.01,0-.03,0-.04.04,0,.08,0,.11-.02.02-.01.03-.05.05-.09.02-.01.04-.01.07-.02-.08.3-.06.36.16.53-.02.02-.05.04-.07.07-.02-.02-.03-.03-.03-.04-.06-.05-.13-.04-.15.02-.01.04-.01.07-.02.11-.01.03-.01.07-.02.1-.02-.07-.05-.14-.08-.22-.02.03-.01.06-.01.08,0,.14,0,.27.01.4,0,.03,0,.05-.01.09-.02.02-.02.04-.02.06-.01.09.05.15.13.13h.03s.08.04.12.07c.02,0,.03.02.04.03.06.06.11.13.16.19.01.01.01.02.02.03,0-.05.04-.08.07-.1.03-.03.06-.08.08-.12h.27s-.05.09-.07.13h-.02c-.08,0-.12.05-.1.13,0,.05.02.11.03.16,0,.02,0,.04.01.07-.02-.02-.03-.03-.04-.05-.02-.03-.05-.04-.1-.03-.04,0-.06.04-.06.08,0,.04,0,.07,0,.12-.02,0-.03-.03-.04-.03-.07-.04-.13.01-.13.08h0c.05.14.11.27.24.34,0,.01.03.01.04.01,0-.03,0-.05-.01-.08.03-.02.05-.04.08-.07.09.1.12.11.21.07.06.04.11.08.17.12-.01.03-.02.07-.02.1-.04.25.03.44.22.59t.01.06s-.1-.08-.15-.11c-.05-.02-.11.01-.16.07-.01-.12-.04-.21-.1-.28-.01,0-.02-.03-.03-.04-.04-.04-.11-.02-.12.04-.01.04-.01.09,0,.14.04.18.1.35.21.5.04.06.08.11.16.11t.02.01s.05.04.07.06c.1.03.15.1.18.21-.08-.06-.15-.12-.2-.2-.01-.02-.03-.04-.05-.06h-.05c.01.06.02.1.03.15-.03,0-.04,0-.08-.01,0,.02,0,.03.02.04.02.02.02.04.02.06s0,.05.01.07c.04.07.09.14.14.21l.03.03s.09.02.12-.03c0-.01.01-.02.01-.04.02.02.04.03.05.04.05.03.08.03.1.01.04-.03.03-.06,0-.1,0,0,0-.01,0-.03.02.02.04.03.05.03.04.03.07.06.11.08.07.03.14-.01.15-.08.01-.04.02-.07.04-.1.02-.04.02-.07,0-.11-.01-.03-.02-.05-.03-.08-.02-.03-.04-.06-.05-.09.03-.02.06-.05.1-.09.01.02.02.04.02.05.01.06.03.12.05.18.02.07.04.13,0,.21,0,.03,0,.08,0,.12.01.04.02.08,0,.13,0,.03.01.06.04.09.02.02.05.04.09.06,0,.03.01.07.02.1.04.01.03-.03.07-.05.01.02.04.03.06.04.07.05.12.02.14-.06t.01-.02s.03.02.05.03c.06.05.12.1.19.15,0,.02-.01.03-.04.03q-.08.02-.14.08s-.08-.02-.12-.04c-.03,0-.07-.01-.11-.02-.01.04.02.05.04.07.04.03.08.05.11.08.1.06.19.14.27.2.06.04.12.07.18.1.05.03.1.04.15,0,.01.03.01.05.01.06.01.03.03.06.05.08.1.04.19.05.28-.01.07-.04.06-.11,0-.14-.06-.04-.1-.07-.16-.11.05-.03.09-.05.09-.11,0-.05-.03-.08-.07-.11.08-.06.06-.13.04-.21,0-.04-.05-.06-.09-.07-.03-.01-.06-.02-.11-.04.07-.05.12-.1.18-.15.01.04.02.08.04.12.03.07.06.15.1.22.03.04.08.08.13.11.04.03.08.07.11.12.01.05.05.07.12.06.03,0,.05-.01.08-.01s.06,0,.09,0c-.05.04-.1.06-.1.13-.01.04,0,.08.08.11.01.1.04.13.14.14h.25s.06,0,.07,0c.04.04.07.06.1.09,0,.11.05.19.15.25.02.02.05.05.08.07.12.08.26.1.4.03.01,0,.03-.01.05-.02v.06c0,.1.07.16.17.13.16-.05.31-.13.42-.27.12.05.2-.03.29-.09.02-.02.04-.04.07-.05.06-.04.07-.09.06-.13-.02-.05-.07-.06-.12-.05-.02,0-.04.01-.06.02.06-.05.11-.1.15-.14.04-.05.07-.11.1-.17.14-.02.27-.04.4-.07v.03c-.14.28-.28.57-.43.86-.13.24-.27.49-.41.74,0,.01-.01.03-.02.04,0,.01-.01.01-.01.02h.01s4.41,2.81,4.41,2.81l.28-2.69.12-.23s.07-.13.13-.22c-.09-.14-.12-.28-.13-.45-.01-.11.02-.21.07-.3.06-.13.13-.26.17-.4.02-.13.07-.26.12-.39.07-.17.17-.33.27-.5.04-.09.1-.17.15-.25.1-.15.17-.32.22-.49.05-.2.15-.37.28-.53.03-.04.07-.07.12-.07.12-.03.24-.03.37-.03.24-.01.47,0,.71-.02.26-.03.52-.08.75-.24.1-.09.19-.19.23-.32.03-.08.03-.19.02-.28-.01-.13-.02-.27-.03-.41,0-.05.01-.09.02-.14.01-.05.04-.08.09-.09.06,0,.11-.02.15-.07.04-.07.06-.14.04-.21ZM37.21,3.46s-.06-.01-.06-.06c.03.02.04.03.06.06ZM25.73,8.65s-.02.04-.03.06q-.02-.06.03-.06ZM25.72,11.84s-.01-.05.03-.05c0,.02,0,.03-.03.05ZM25.68,10.19s-.04-.03-.06-.05v-.02s.05.04.08.06c.09.03.15.1.18.21-.08-.06-.15-.12-.2-.2ZM25.95,4.19s-.07-.03-.11-.05c.01-.02.02-.04.03-.05.03.02.06.05.08.07.02.01,0,.03,0,.03ZM26.03,10.34h0s.1.08.15.13t-.01.01s-.1-.09-.14-.14ZM26.2,13.62h-.01c-.05-.05-.09-.09-.14-.14h0c.06.03.11.08.15.13h0ZM26.64,3.54h-.01s.03-.06.05-.1c0,.02.02.02.03.04-.03.02-.05.04-.07.06ZM27.05,11.28l-.02-.02s.01-.01.01-.02c.01,0,.02.02.02.02,0,.01,0,.02,0,.02ZM27.07,14.42s-.01-.02-.02-.02c0,0,0-.01.02-.02.01.01.01.02.01.02,0,0,0,.02-.01.02ZM27.19,2.81s-.02-.04,0-.07v.07ZM27.74,14.79c-.1.03-.16-.01-.19-.1.07.01.13.04.19.1ZM27.52,11.55c.08.01.14.04.2.1-.11.03-.17,0-.2-.1ZM27.72,2.02s.04.01.07.02c-.05.03-.06.01-.07-.02ZM27.98,1.28s.03-.07.04-.11c.02.03.03.05.03.07-.02,0-.03.03-.07.04ZM29.58,15.08s-.01.01-.01.02c-.02.02-.04.03-.06.05-.04.03-.08.06-.06.13-.04.01-.07.02-.09-.01-.03-.06-.08-.1-.06-.18.03-.02.05-.06.04-.11,0-.02.03-.05.05-.06.05-.03.12-.05.19-.08,0,.08-.03.15,0,.24ZM29.49.9s.07-.04.1-.06c-.02.03-.04.07-.1.06ZM30.49,1.04s-.01-.02-.02-.03c0,0,0-.01.01-.01s.03.01.04.01c-.01.02-.02.03-.03.03ZM30.65.89s.05-.01.06.02c-.03.03-.04,0-.06-.02ZM32.28.18s.09.02.14.03q-.09.04-.14-.03ZM33.69.36l-.02-.02s.02-.01.03-.02c0,.01.01.01.01.01-.01.02-.02.02-.02.03ZM38.6,9.84s.06.07.06.12c-.02.09-.05.18-.07.26-.02.04-.05.06-.09.04-.07-.02-.13-.04-.19-.06-.14.05-.26.14-.36.26.05.04.1.09.15.13-.08-.01-.15-.04-.21-.1-.01,0-.01-.04,0-.06,0-.01.01-.03.02-.04.09-.1.18-.19.3-.23.03-.02.06-.04.09-.05,0-.01.03-.02.04-.04.04-.05.07-.12.1-.18-.09-.09-.17-.17-.25-.26.03,0,.06-.02.08,0,.11.07.22.15.33.22ZM37.2,8.05c.09.18.23.31.4.41.14.08.29.16.43.23.14.07.28.13.4.23.05.04.1.09.13.15,0,.03.01.07.01.1-.01.03-.02.04-.05.03,0-.08-.03-.14-.09-.18-.07-.05-.14-.1-.22-.13-.13-.07-.26-.13-.4-.19-.17-.09-.34-.18-.49-.32-.1-.09-.16-.2-.14-.36.02.01.02.02.02.03ZM37.13,7.57q0,.14-.12.1c-.16-.05-.31-.1-.45.02-.02.01-.06.01-.07,0-.03,0-.03-.04-.02-.07.04-.11.07-.22.12-.33.02-.04.05-.08.07-.11.09-.1.23-.1.31-.01.04.03.06.06.08.09.06.1.08.21.08.31ZM36.77,8.27s-.09,0-.14-.04c.04,0,.06-.01.08-.01.09,0,.18.01.26.01q.06.01.06.08s.01.07,0,.1c0,.02-.01.04-.02.07-.04-.01-.08-.02-.12-.03-.01-.02-.03-.03-.04-.05v-.05q-.02-.07-.08-.08ZM36.85,8.16v-.02c.02-.08.02-.16.01-.24,0-.02.01-.06.01-.08.05.01.07.02.08.06.02.06.02.13.01.19-.02.05-.06.08-.11.09ZM37.04,6.12c.04.08.05.18-.03.26-.06-.11-.13-.22-.2-.33.09-.02.18-.02.23.07ZM35.96,5.71c-.1-.21-.25-.4-.42-.56-.01-.02-.02-.04-.03-.05.02-.01.04-.02.06-.02.03.01.07.02.1.03.34.19.63.42.87.73.14.18.24.39.33.59.06.14.12.28.17.43.02.03.01.08-.01.1-.04-.02-.09-.04-.13-.05-.14-.03-.29-.04-.43-.02h-.07s-.07-.02-.08-.07c-.01-.06-.01-.12-.02-.18-.06-.33-.18-.63-.34-.93ZM37.74,9.86h-.02s0-.02-.01-.02c-.06-.09-.11-.19-.17-.27-.18-.24-.4-.46-.62-.67-.02-.01-.03-.03-.06-.04-.18-.09-.36-.18-.55-.24,0,0-.02-.01-.03-.01-.02-.02-.04-.04-.04-.05,0-.02.03-.04.05-.04.01-.01.02-.01.04-.01.07-.01.14-.01.21-.01.07,0,.13-.02.2-.02.1-.01.2.02.3.05.01.01.02.02.04.03.36.33.59.72.66,1.2v.1ZM38.42,11.11c-.06.07-.07.15-.07.23,0,.1.01.2.03.3.02.12,0,.24-.04.35-.04.12-.14.16-.25.18-.06.02-.13.02-.19.02-.04.01-.08.01-.11.02,0-.01-.01-.02-.01-.02.03-.02.06-.04.1-.06.03-.02.07-.03.1-.04.04-.02.05-.06.06-.1.01-.08.03-.15.03-.23,0-.11-.02-.21-.04-.32-.01-.11-.02-.21-.03-.32,0-.03,0-.06.02-.07.04-.03.08-.06.13-.06.07,0,.15,0,.23.02.05,0,.07.05.04.1ZM38.7,10.88c-.06.07-.08.09-.14,0-.04-.06-.07-.12-.11-.18-.02-.03-.05-.05-.08-.05-.05-.01-.1-.03-.16-.04.01-.01.01-.02.01-.03.12-.03.24-.03.35,0,.09.04.16.13.16.22,0,.03-.01.07-.03.09Z"/>
    </g>
  </g>
</svg>